<?xml version="1.0" encoding="iso-8859-1"?>
<!-- Generator: Adobe Illustrator 19.0.0, SVG Export Plug-In . SVG Version: 6.00 Build 0)  -->
<svg version="1.1" id="Layer_1" xmlns="http://www.w3.org/2000/svg" xmlns:xlink="http://www.w3.org/1999/xlink" x="0px" y="0px"
	 viewBox="0 0 512.001 512.001" style="enable-background:new 0 0 512.001 512.001;" xml:space="preserve">
<path style="fill:#FFFFFF;" d="M256,504C119.033,504,8,392.967,8,256S119.033,8,256,8s248,111.033,248,248
	C503.846,392.902,392.902,503.846,256,504z"/>
<path style="fill:#E21B1B;" d="M256,16c132.549,0,240,107.451,240,240s-107.452,240-240,240S16,388.548,16,256
	C16.15,123.514,123.514,16.15,256,16 M256,0C114.615,0,0,114.615,0,256s114.615,256,256,256s256-114.615,256-256S397.385,0,256,0z"
	/>
<path style="fill:#FFFFFF;" d="M256,467.896c-117.027,0-211.896-94.869-211.896-211.896S138.973,44.104,256,44.104
	S467.896,138.973,467.896,256l0,0C467.764,372.972,372.972,467.764,256,467.896z"/>
<path style="fill:#CCCCCC;" d="M256,48.104c114.818,0,207.896,93.078,207.896,207.896S370.818,463.897,256,463.897
	S48.104,370.818,48.104,256C48.232,141.235,141.235,48.232,256,48.104 M256,40.104c-119.237,0-215.896,96.66-215.896,215.896
	S136.764,471.897,256,471.897S471.897,375.237,471.897,256l0,0C471.896,136.764,375.236,40.104,256,40.104z"/>
<rect x="141.654" y="277.816" style="fill:#939393;" width="59.338" height="75.823"/>
<rect x="226.341" y="219.625" style="fill:#E21B1B;" width="59.338" height="134.014"/>
<rect x="310.999" y="158.362" width="59.338" height="195.277"/>
<g>
</g>
<g>
</g>
<g>
</g>
<g>
</g>
<g>
</g>
<g>
</g>
<g>
</g>
<g>
</g>
<g>
</g>
<g>
</g>
<g>
</g>
<g>
</g>
<g>
</g>
<g>
</g>
<g>
</g>
</svg>
